<?xml version="1.0" encoding="UTF-8"?>
<svg width="131px" height="13px" viewBox="0 0 131 13" version="1.1" data-reactid="12"><g stroke="none" stroke-width="1" fill="currentColor" fill-rule="evenodd" data-reactid="13"><path d="M124.964491,5.14070676 C124.964491,0.557892697 127.855763,0.00746240636 130.032754,0.00746240636 C130.557278,0.00746240636 130.969664,0.411182678 130.969664,0.92341839 C130.969664,1.43761737 130.557278,1.84205156 130.032754,1.84205156 C128.268149,1.84205156 126.841781,2.20971901 126.841781,5.14070676 L126.841781,7.70848906 C126.841781,12.2720274 123.978087,12.8390562 121.804748,12.8444106 L120.760998,12.8444106 C120.233735,12.8444106 119.821166,12.4414043 119.821166,11.9261344 C119.821166,11.4140772 120.233735,11.0110708 120.760998,11.0110708 L121.796713,11.0110708 C123.551273,11.0078582 124.964491,10.6300174 124.964491,7.70848906 L124.964491,5.14070676 Z" id="Fill-1" data-reactid="14"></path><path d="M1.87592031,1.95265521 L1.87592031,6.42516904 L6.79278022,6.42516904 C8.1070111,6.42516904 9.00575071,5.36286 9.00575071,4.18793049 C9.00575071,3.01621361 8.1070111,1.95265521 6.79278022,1.95265521 L1.87592031,1.95265521 Z M6.79278022,0.190707147 C9.04410375,0.190707147 10.8828581,1.98781564 10.8828581,4.18793049 C10.8828581,6.38983014 9.04410375,8.18604623 6.79278022,8.18604623 L1.87592031,8.18604623 L1.87592031,11.8539752 C1.87592031,12.3679957 1.4635338,12.7347707 0.936270794,12.7347707 C0.41101676,12.7347707 9.13167651e-05,12.3317644 9.13167651e-05,11.8173869 L9.13167651e-05,1.10684161 C9.13167651e-05,0.593713501 0.41101676,0.190707147 0.936270794,0.190707147 L6.79278022,0.190707147 Z" id="Fill-4" data-reactid="15"></path><path d="M18.7659605,1.95265521 L18.7659605,6.05857248 L23.6822725,6.05857248 C24.9965034,6.05857248 25.8957909,5.1788478 25.8957909,4.00498917 C25.8957909,2.83113053 24.9965034,1.95265521 23.6822725,1.95265521 L18.7659605,1.95265521 Z M23.6822725,0.190707147 C25.9334134,0.190707147 27.773081,1.8050528 27.773081,4.00498917 C27.773081,5.9486292 26.3465305,7.41626483 24.4692404,7.7457377 L27.8854006,11.2669566 C28.2236379,11.5973219 28.3341312,12.1829126 27.9600977,12.5145272 C27.5853337,12.8813023 26.8717845,12.7708236 26.4972031,12.3679957 L22.0692532,7.81927119 L18.7659605,7.81927119 L18.7659605,11.8539752 C18.7659605,12.3679957 18.3530261,12.7347707 17.82832,12.7347707 C17.3005091,12.7347707 16.8888531,12.3317644 16.8888531,11.8173869 L16.8888531,1.10684161 C16.8888531,0.593713501 17.3005091,0.190707147 17.82832,0.190707147 L23.6822725,0.190707147 Z" id="Fill-6" data-reactid="16"></path><path d="M39.2949191,11.0116241 C41.883932,11.0116241 43.9864092,8.95679142 43.9864092,6.42506196 C43.9864092,3.89511728 41.883932,1.84260485 39.2949191,1.84260485 C36.706454,1.84260485 34.6036116,3.89511728 34.6036116,6.42506196 C34.6036116,8.95679142 36.706454,11.0116241 39.2949191,11.0116241 M39.2949191,0.00801569232 C42.936449,0.00801569232 45.8638819,2.86868259 45.8638819,6.42506196 C45.8638819,9.98411852 42.936449,12.8447854 39.2949191,12.8447854 C35.6535717,12.8447854 32.7281478,9.98411852 32.7281478,6.42506196 C32.7281478,2.86868259 35.6535717,0.00801569232 39.2949191,0.00801569232" id="Fill-8" data-reactid="17"></path><path d="M53.74419,1.95265521 L53.74419,6.42516904 L58.6617804,6.42516904 C59.9752808,6.42516904 60.8760293,5.36286 60.8760293,4.18793049 C60.8760293,3.01621361 59.9752808,1.95265521 58.6617804,1.95265521 L53.74419,1.95265521 Z M58.6617804,0.190707147 C60.9129213,0.190707147 62.7531368,1.98781564 62.7531368,4.18793049 C62.7531368,6.38983014 60.9129213,8.18604623 58.6617804,8.18604623 L53.74419,8.18604623 L53.74419,11.8539752 C53.74419,12.3679957 53.3310729,12.7347707 52.8092889,12.7347707 C52.2818433,12.7347707 51.8694568,12.3317644 51.8694568,11.8173869 L51.8694568,1.10684161 C51.8694568,0.593713501 52.2818433,0.190707147 52.8092889,0.190707147 L58.6617804,0.190707147 Z" id="Fill-10" data-reactid="18"></path><path d="M78.9288973,6.97595629 L70.2958103,6.97595629 L70.2958103,11.8173869 C70.2958103,12.3317644 69.8836064,12.7347707 69.3583524,12.7347707 C68.8310894,12.7347707 68.4187028,12.3317644 68.4187028,11.8173869 L68.4187028,1.03402204 C68.4187028,0.521072409 68.8310894,0.118066055 69.3583524,0.118066055 C69.8836064,0.118066055 70.2958103,0.521072409 70.2958103,1.03402204 L70.2958103,5.21490063 L78.9288973,5.21490063 L78.9288973,1.03402204 C78.9288973,0.521072409 79.3412838,0.118066055 79.8639809,0.118066055 C80.3912439,0.118066055 80.804361,0.521072409 80.804361,1.03402204 L80.804361,11.8173869 C80.804361,12.3317644 80.3912439,12.7347707 79.8639809,12.7347707 C79.3412838,12.7347707 78.9288973,12.3317644 78.9288973,11.8173869 L78.9288973,6.97595629 Z" id="Fill-12" data-reactid="19"></path><path d="M98.2573691,10.9000745 C98.7839015,10.9000745 99.1970186,11.267028 99.1970186,11.7799777 C99.1970186,12.2931058 98.7839015,12.6607732 98.2573691,12.6607732 L89.2497007,12.6607732 C88.724264,12.6607732 88.3126081,12.2577669 88.3126081,11.7446387 L88.3126081,1.10673452 C88.3126081,0.593784893 88.724264,0.190778539 89.2497007,0.190778539 L98.2573691,0.190778539 C98.7839015,0.190778539 99.1970186,0.558624463 99.1970186,1.07157409 C99.1970186,1.5847022 98.7839015,1.9527266 98.2573691,1.9527266 L90.1898981,1.9527266 L90.1898981,5.39898422 L96.3815401,5.39898422 C96.9066115,5.39898422 97.3195459,5.76683014 97.3195459,6.27888738 C97.3195459,6.79183701 96.9066115,7.15968293 96.3815401,7.15968293 L90.1898981,7.15968293 L90.1898981,10.9000745 L98.2573691,10.9000745 Z" id="Fill-14" data-reactid="20"></path><path d="M110.063458,1.95265521 L105.373794,1.95265521 C104.845983,1.95265521 104.433597,1.58463081 104.433597,1.0715027 C104.433597,0.558553071 104.845983,0.190707147 105.373794,0.190707147 L116.632238,0.190707147 C117.157492,0.190707147 117.569879,0.558553071 117.569879,1.0715027 C117.569879,1.58463081 117.157492,1.95265521 116.632238,1.95265521 L111.940565,1.95265521 L111.940565,11.8173869 C111.940565,12.3317644 111.527814,12.7347707 111.002377,12.7347707 C110.475662,12.7347707 110.063458,12.3317644 110.063458,11.8173869 L110.063458,1.95265521 Z" id="Fill-16" data-reactid="21"></path></g></svg>
